<?xml version="1.0" encoding="UTF-8"?>
<svg data-bbox="0 -0.03 269.6 66.13" height="66.1" width="269.5" viewBox="0 0 269.5 66.1" xmlns="http://www.w3.org/2000/svg" data-type="color">
    <g>
        <path d="M79.2 14.6H102v6H85.8V27h14.3v6H85.8v11.6h-6.6v-30z" fill="#ffffff" data-color="1"/>
        <path d="M106.4 14.6h6.6v24h15v6h-21.6v-30z" fill="#ffffff" data-color="1"/>
        <path d="M132.1 14.6h22.6v5.9h-16.1v6.1h14.1v5.9h-14.1v6.3H155v5.9h-22.9V14.6z" fill="#ffffff" data-color="1"/>
        <path d="M160 14.6h7.1l7.9 12.7 7.9-12.7h7.1v30h-6.6V25.1L175 37.9h-.2l-8.4-12.7v19.5H160V14.6z" fill="#ffffff" data-color="1"/>
        <path d="M196.6 14.6h6.6v30h-6.6v-30z" fill="#ffffff" data-color="1"/>
        <path d="M209.9 14.6h6.1l14 18.5V14.6h6.5v30h-5.6l-14.5-19.1v19.1h-6.5v-30z" fill="#ffffff" data-color="1"/>
        <path d="M241 29.7c-.1-8.6 6.8-15.5 15.3-15.6h.4c5.4 0 8.7 1.5 11.8 4.1l-4.2 5c-2.1-2-4.9-3.1-7.8-3-4.8 0-8.6 4.2-8.6 9.3v.1c0 5.5 3.8 9.5 9.1 9.5 2.2.1 4.4-.6 6.2-1.8V33h-6.6v-5.7h13v13c-3.6 3.1-8.1 4.8-12.8 4.8-9.4.1-15.8-6.5-15.8-15.4z" fill="#ffffff" data-color="1"/>
        <path d="M0 14.2v1.4c.1 3.3.4 6.6.9 9.9a73.47 73.47 0 0 1 31.6 40.6c6.3-3.4 12-7.9 16.7-13.3l-38-38c-3.8 0-7.5-.2-11.2-.6z" fill="#0075c0" data-color="2"/>
        <path d="M28.9 65.3c-5-14.5-14.5-26.9-27.1-35.5 3.9 15 13.6 27.8 27.1 35.5z" fill="#73c810" data-color="3"/>
        <path d="M11.1 11.7 22.5.3C15.4.7 8.4 1.6 1.4 3 .8 5.7.4 8.4.2 11.1c3.6.4 7.3.6 10.9.6z" fill="#00d1c3" data-color="4"/>
        <path d="M28.4 0H27L15.5 11.6c14.6-.4 28.9-3.6 42.3-9.3C48.1.6 38.3-.2 28.4 0z" fill="#ff8c00" data-color="5"/>
        <path d="M61.7 4c-14.6 6.6-30.3 10.3-46.3 10.7l16.1 16.1L48.3 14l2.2 2.2L33.6 33l17.5 17.4C61.2 37.2 65.1 20.3 61.7 4z" fill="#ff0005" data-color="6"/>
    </g>
</svg>
